<?xml version="1.0" encoding="utf-8"?>
<!-- Generator: Adobe Illustrator 23.0.1, SVG Export Plug-In . SVG Version: 6.00 Build 0)  -->
<svg version="1.1" id="Layer_1" xmlns="http://www.w3.org/2000/svg" xmlns:xlink="http://www.w3.org/1999/xlink" x="0px" y="0px"
	 viewBox="0 0 16383 16383" style="enable-background:new 0 0 16383 16383;" xml:space="preserve">
<style type="text/css">
	.st0{fill:#A55D14;}
	.st1{fill:#663810;}
	.st2{fill:#874A13;}
	.st3{fill:#5E320D;}
	.st4{fill:#8E4300;}
	.st5{fill:#FFF429;}
</style>
<path class="st0" d="M3808.92,2533.24v6544.48c0,944.5,765.66,1710.16,1710.16,1710.16h4519.45
	c944.5,0,1710.16-765.67,1710.16-1710.16V2533.24c0-944.5-765.67-1710.16-1710.16-1710.16H5519.08
	C4574.59,823.08,3808.92,1588.75,3808.92,2533.24z"/>
<path class="st1" d="M4123.86,2456.15v359.56c0,758.01,614.48,1372.49,1372.49,1372.49h4564.92
	c758.01,0,1372.49-614.48,1372.49-1372.49v-359.56c0-758.01-614.48-1372.49-1372.49-1372.49H5496.35
	C4738.34,1083.66,4123.86,1698.15,4123.86,2456.15z"/>
<g>
	<path class="st2" d="M5367.05,7802.87h380.75c238.59,0,432,193.41,432,432V9406.4c0,238.59-193.41,432-432,432h-380.75
		c-238.59,0-432-193.41-432-432V8234.87C4935.05,7996.28,5128.46,7802.87,5367.05,7802.87z"/>
	<path class="st3" d="M4935.05,8325.54c414.92,95.44,829.83,95.44,1244.75,0C5781.18,8413.37,5366.73,8412.83,4935.05,8325.54z"/>
	<polygon class="st4" points="5379.97,8020.7 5734.88,8020.7 5734.88,9370.66 5549.55,9556 5380.87,9387.33 	"/>
	<path class="st5" d="M5281.84,8734.99v395.92h551.17v-395.92H5281.84z M5734.88,9062.89h-354.91v-259.88h354.91V9062.89z"/>
	<circle class="st5" cx="5557.42" cy="8138.92" r="63.08"/>
</g>
<path class="st2" d="M9984.34,7802.87h380.75c238.59,0,432,193.41,432,432V9406.4c0,238.59-193.41,432-432,432h-380.75
	c-238.59,0-432-193.41-432-432V8234.87C9552.34,7996.28,9745.75,7802.87,9984.34,7802.87z"/>
<path class="st3" d="M9552.34,8325.54c414.92,95.44,829.83,95.44,1244.75,0C10398.47,8413.37,9984.02,8412.83,9552.34,8325.54z"/>
<polygon class="st4" points="9997.26,8020.7 10352.17,8020.7 10352.17,9370.66 10166.83,9556 9998.16,9387.33 "/>
<path class="st5" d="M9899.13,8734.99v395.92h551.17v-395.92H9899.13z M10352.17,9062.89h-354.91v-259.88h354.91V9062.89z"/>
<circle class="st5" cx="10174.71" cy="8138.92" r="63.08"/>
</svg>
