<?xml version="1.0" encoding="utf-8"?>
<!-- Generator: Adobe Illustrator 23.0.1, SVG Export Plug-In . SVG Version: 6.00 Build 0)  -->
<svg version="1.1" id="Layer_1" xmlns="http://www.w3.org/2000/svg" xmlns:xlink="http://www.w3.org/1999/xlink" x="0px" y="0px"
	 viewBox="0 0 16383 16383" style="enable-background:new 0 0 16383 16383;" xml:space="preserve">
<style type="text/css">
	.st0{fill:url(#SVGID_1_);}
	.st1{fill:#758DB3;}
	.st2{fill:#E7E7E8;}
	.st3{fill:#647999;}
</style>
<radialGradient id="SVGID_1_" cx="8191.5" cy="8191.5" r="5195.75" gradientUnits="userSpaceOnUse">
	<stop  offset="0.7263" style="stop-color:#FFFFFF"/>
	<stop  offset="0.9613" style="stop-color:#FFFFFF;stop-opacity:0.1413"/>
	<stop  offset="1" style="stop-color:#FFFFFF;stop-opacity:0"/>
</radialGradient>
<circle class="st0" cx="8191.5" cy="8191.5" r="5195.75"/>
<path class="st1" d="M10906.41,6760.92c14.78,51.63,16.98,102.73-0.14,172.99C10884.72,6863.44,10886.69,6812.07,10906.41,6760.92z"
	/>
<path class="st2" d="M12996.96,2939.45c13.79-5.02,22.92-23.87,42.79-13.97c-2.64,19.54-17.87,22.24-32.73,25.38
	C13003.67,2947.06,13000.31,2943.26,12996.96,2939.45z"/>
<path class="st2" d="M13051.39,5391.82c9.81,3.98,22.88,4.62,21.36,20.31c-0.2,2.03-2.52,5.69-3.26,5.54
	c-11.57-2.29-19.54-9.01-23.28-20.4C13047.94,5395.45,13049.66,5393.64,13051.39,5391.82z"/>
<path class="st2" d="M13026.4,5373.36c8.32,6.17,16.63,12.34,24.97,18.48c-1.7,1.8-3.43,3.61-5.16,5.43
	c-11.43-0.28-22.86-0.57-29.44-12.4C13019.98,5381.04,13023.19,5377.2,13026.4,5373.36z"/>
<path class="st2" d="M13016.77,5384.87c-6.41-2.63-12.82-5.26-19.24-7.87c3-3.32,6.08-6.58,9.23-9.78
	c6.54,2.06,13.08,4.11,19.63,6.15C13023.19,5377.2,13019.98,5381.04,13016.77,5384.87z"/>
<polygon class="st2" points="9788.23,6098.91 9783.64,6100.82 9784,6096.29 "/>
<polygon class="st2" points="9788.21,2219.23 9783.36,2221.1 9783.86,2216.37 "/>
<polygon class="st2" points="12024.17,2223.09 12022.23,2218.19 12026.84,2218.55 "/>
<path class="st2" d="M9797.66,2259.99c0.39-6.1,0.79-12.19,1.18-18.29c2.67,3.5,5.34,6.99,8.01,10.49
	C9803.84,2254.85,9800.78,2257.46,9797.66,2259.99z"/>
<path class="st2" d="M12000.22,2249.86c4.21-2.47,8.41-4.94,12.62-7.4c-0.53,5.8-1.06,11.59-1.57,17.4
	C12007.6,2256.53,12003.91,2253.19,12000.22,2249.86z"/>
<path class="st2" d="M8706.25,5423.58c-1.28,2.5-2.56,5-3.83,7.5c-0.03-1.34-0.63-3.32,0.02-3.88c1.38-1.2,3.4-1.66,5.16-2.43
	C8707.59,5424.77,8706.25,5423.58,8706.25,5423.58z"/>
<polygon class="st2" points="8672.79,5448.23 8671.29,5444.51 8674.97,5444.86 "/>
<path class="st3" d="M11294.98,4034.67c-2.71,2.25-7.33,6.83-7.85,6.4c-7.4-6.07-1.25-8.75,3.45-11.69
	C11290.56,4029.35,11294.98,4034.67,11294.98,4034.67z"/>
<path class="st1" d="M10600.09,3879.41c2.63,2.71,5.27,5.42,7.9,8.12c-5.16-0.1-10.32-0.21-15.5-0.29
	C10594.99,3884.62,10597.52,3882,10600.09,3879.41z"/>
<path class="st3" d="M11217.5,3887.91c-5.61,4.01-11.55,8.4-16.61,0.08c-0.58-0.95,5.28-5.81,8.16-8.85
	C11211.92,3882.01,11214.73,3884.93,11217.5,3887.91z"/>
<path class="st3" d="M10591.55,4428.66c5.29-0.85,10.59-1.69,15.88-2.54c-1.9,4.57-3.79,9.15-5.69,13.72
	C10598.35,4436.12,10594.95,4432.39,10591.55,4428.66z"/>
</svg>
