<?xml version="1.0" encoding="utf-8"?>
<!-- Generator: Adobe Illustrator 23.0.1, SVG Export Plug-In . SVG Version: 6.00 Build 0)  -->
<svg version="1.1" id="Layer_1" xmlns="http://www.w3.org/2000/svg" xmlns:xlink="http://www.w3.org/1999/xlink" x="0px" y="0px"
	 viewBox="0 0 16383 16383" style="enable-background:new 0 0 16383 16383;" xml:space="preserve">
<style type="text/css">
	.st0{fill:#FFFFFF;}
</style>
<path class="st0" d="M10615.19,3967.07c-109.22,226.45-218.44,452.89-327.66,679.34c-473.83,950.4-947.65,1900.79-1421.48,2851.19
	c-6.27,6.64-19.04,17.24-17.79,19.3c11.02,18.13,23.98,8.57,36.21-0.18c235.39-52.6,424.18-201.96,630.42-312.32
	c653.65-349.77,1298.54-715.86,1949.99-1069.8c430.31-233.8,866.07-457.56,1299.39-685.81c7.31,8.29,14.62,16.58,21.93,24.88
	c-482.64,329.97-991.75,617.52-1487.62,926.28c-697.13,434.07-1399.84,859.19-2100.78,1287.13
	c-60.51,36.94-114.36,78.99-153.98,138.11c-10.26,6.42-23.65,12.27-7.53,25.49c1.13,0.93,11.21-9.05,17.13-13.96
	c442.51,29.27,885.05,58.04,1327.52,87.91c744.19,50.24,1489.81,78.65,2232.75,148.78c121.5,11.47,245.01,1.61,367.59,1.61
	c0.2,18.46,0.41,36.92,0.61,55.38c-1310.82,80.98-2621.65,161.96-3942.82,243.57c72.78,115.77,180.26,166.83,279.82,227.97
	c1149.26,705.7,2298.4,1411.59,3447.35,2117.78c8.03,4.93,13.02,14.81,19.43,22.37c-6.87,6.98-13.58,14.1-20.14,21.36
	c-1273.62-685.94-2547.16-1372.02-3821.66-2056.31c-17.2-9.23-46.63,4.31-84.85,9c586.6,1181.24,1167.81,2351.61,1749.01,3521.97
	c-13.41,7.08-26.83,14.17-40.24,21.25c-721.68-1090.25-1443.36-2180.5-2169.86-3278.02c-60.02,69.66-62.68,151.79-64.84,233.63
	c-22.72,863.2-45.99,1726.39-67.43,2589.62c-13.35,537.5-23.7,1075.09-36,1612.62c-0.67,29.11-6.99,58.09-10.92,89.03
	c-59.43-12.11-41.41-56.18-41.75-85.52c-7.11-617.23-53.27-1233.85-58.18-1850.11c-6.07-762.5-46.36-1524.08-42.76-2286.52
	c0.49-104.36,6.41-211.73-64.26-318.17c-736.53,1112.05-1467.41,2215.55-2198.29,3319.06c-10.84-6.2-21.67-12.39-32.51-18.59
	c120.28-241.38,241.48-482.3,360.65-724.23c315.17-639.85,628.38-1280.67,944.56-1920.01c149.33-301.95,303.67-601.42,455.75-902.02
	c4.13-9.97,8.27-19.94,12.4-29.91c-11.54,1.85-23.08,3.69-34.62,5.54c-133.51,5.45-233.29,91.09-342.71,149.84
	c-730.1,391.95-1458.21,787.62-2186.52,1182.91c-127.46,69.18-252.79,142.28-379.12,213.58
	c-327.95,176.52-655.32,354.13-984.32,528.65c-69.67,36.96-131.4,95.2-217.89,94.27l2.92,2.59
	c388.6-243.1,776.13-487.95,1166.04-728.94c797.16-492.7,1595.6-983.32,2393.51-1474.79c125.12-97.1,296.58-132.37,390.83-287.61
	c-593.02-38.49-1175.53-78.01-1758.27-113.6c-518.01-31.64-1036.29-58.91-1554.45-88.11c-217.64-2.43-433.63-21.37-648.61-85.31
	c1226.94-77.43,2453.89-154.86,3680.83-232.29c84.81-7.01,169.63-14.03,253.88-20.99c-8.71-87.59-73.41-113.63-127.81-147.2
	c-459.16-283.28-917.49-567.95-1378.98-847.41c-216.13-130.88-438.65-251.2-658.27-376.31c-17.84-54.86-70.48-68.59-112.57-94.16
	c-512.42-311.23-1025.08-622.06-1538.17-933.29c38.22-54.46,70.46-15.55,99.93,0.39c651.11,352.1,1301.69,705.18,1952.5,1057.84
	c601.68,326.05,1203.19,652.41,1805.91,976.53c43.04,23.15,95.36,29.06,143.39,42.94c11.28,0.18,22.53,0.4,33.79,0.63
	c-5.74-5.9-11.48-11.81-17.23-17.71c-327.94-663.13-653.14-1327.53-992.33-1985.16c-262.94-509.8-505.58-1030.07-757.24-1545.69
	c6.81-5.53,13.49-11.2,20.05-17.02c258.28,341.3,481.78,706.22,718.91,1061.82c497.61,746.19,990.98,1495.21,1508.1,2242.34
	c73.35-726.53,41.88-1456.29,78.18-2183.09c36.47-730.27,46.25-1461.88,67.73-2192.9c13.15-0.58,26.29-1.17,39.44-1.75
	c16.14,430.08,32.28,860.16,48.43,1290.23c22.26,955.98,44.54,1911.98,66.73,2867.97c1.65,70.89,16.7,137.57,61.07,204.74
	c79.74-126.92,156.25-248.7,232.77-370.47C8977.64,6350.2,9324.83,5831,9672.69,5312.25c305.73-455.92,612.22-911.34,918.37-1366.99
	C10599.1,3952.53,10607.14,3959.8,10615.19,3967.07z"/>
</svg>
