<?xml version="1.0" encoding="utf-8"?>
<!-- Generator: Adobe Illustrator 23.0.1, SVG Export Plug-In . SVG Version: 6.00 Build 0)  -->
<svg version="1.1" id="Layer_1" xmlns="http://www.w3.org/2000/svg" xmlns:xlink="http://www.w3.org/1999/xlink" x="0px" y="0px"
	 viewBox="0 0 16383 16383" style="enable-background:new 0 0 16383 16383;" xml:space="preserve">
<style type="text/css">
	.st0{fill:#894416;}
	.st1{opacity:0.11;fill:#CCCCCC;}
	.st2{opacity:0.32;fill:#7F7F7F;}
</style>
<path class="st0" d="M2333.18,9356.26c483.8,21.15,610.24,27.79,1094.04,41.42c108.34,3.05,573.06,112.23,681.39,114.9
	c129.85,3.21,260.68-89.4,390.53-86.73c424.47,8.72,837.6-72.97,1262.07-70.03c320.07,2.22,651.46,90.31,971.53,89.24
	c163.8-0.55,305.11,91.26,468.91,89.85c89.29-0.77,201.08-94.45,290.38-95.48c483.85-5.55,1001.2-70.12,1485.05-83.18
	c204.88-5.53,376.25,43.54,581.13,36.66c316.22-10.61,632.43-22.83,948.65-36.66c0,0,45.88,225.42,22.94,358.36
	s-123.44,177.61-112.27,322.77c11.17,145.16,200.99,334.99,200.99,580.64c0,245.66-111.66,614.14-111.66,614.14
	c-290.29-6.34-658.84,5.08-949.13,0.08c-115.42-1.99-197.24-87.64-312.65-89.42c-260.59-4-476.51,59.23-737.1,56.32
	c-375.95-4.2-774.04-76.73-1149.99-78.66c-387.03-1.99-751.91,66.69-1138.94,67.11c-160.07,0.17-364.76-67.69-524.82-67.11
	c-320.03,1.17-729.59,108.85-1049.62,111.66c-383.43,3.37-655.02-95.05-1038.46-89.33c-431.75,6.45-841.2,79.89-1272.95,89.33
	c0,0,44.67-256.82,78.16-357.32c33.5-100.5-54.69-187.15-78.16-279.16c-23.47-92.01-78.16-290.32-78.16-390.82
	c0-100.5,156.33-89.33,189.83-245.66c33.5-156.33-111.66-212.16-111.66-290.32C2333.18,9590.75,2333.18,9356.26,2333.18,9356.26z"/>
<path class="st1" d="M2743.61,9680.81c0,0,6626.16-200.75,7059.2-75.28s426.16,426.6,199.33,560.44s-1644.55-108.92-2401.19-168.98
	c-616.1-48.91-3943.15,209.01-4211.23,218.27s-766.67-76.2-840.94-224.95C2406.8,9705.9,2743.61,9680.81,2743.61,9680.81z"/>
<path class="st2" d="M2946.31,10476.51c0,0,2581.96-142.13,3339.97-106.59c758.01,35.53,1137.01,142.13,1575.23,106.59
	c438.22-35.53,1468.64-224.59,1823.96-112.3c355.32,112.3,450.07,349.17,379,443.93c-71.06,94.75-450.07,201.35-556.66,189.5
	c-106.59-11.84-5720.59,37.34-6158.81,0.91c-438.22-36.44-781.28-93.52-781.7-225.94
	C2566.3,10452.82,2946.31,10476.51,2946.31,10476.51z"/>
</svg>
